<svg viewBox="0 0 240 240" xmlns="http://www.w3.org/2000/svg">
  <rect width="240" height="240" rx="48" fill="#0F172A" />
  <path d="M 35 100 Q 70 50 130 25" fill="none" stroke="#D9232A" stroke-width="16" stroke-linecap="round" />
  <path d="M 26 115 L 38 100 L 50 112 M 28 113 Q 12 130 20 148 T 40 160" fill="none" stroke="#FFFFFF" stroke-width="6" stroke-linecap="round" />
  <rect x="32" y="94" width="18" height="10" rx="3" fill="#FFFFFF" />
  <path d="M 130 25 L 230 100 L 210 100 L 210 195 L 85 195 L 85 100 L 65 100 Z" fill="#D9232A" />
  <rect x="108" y="90" width="78" height="46" fill="#FFFFFF" rx="3" />
  <line x1="147" y1="90" x2="147" y2="136" stroke="#D9232A" stroke-width="6" />
  <line x1="108" y1="90" x2="108" y2="136" stroke="#D9232A" stroke-width="6" />
  <path d="M 130 40 L 205 100 L 190 100 L 130 52 Z" fill="#FFFFFF" opacity="0.9" />
</svg>
